<svg id="visual" viewBox="0 0 1920 1080" width="1920" height="1080" xmlns="http://www.w3.org/2000/svg" xmlns:xlink="http://www.w3.org/1999/xlink" version="1.1"><path d="M0 379L21.3 377.2C42.7 375.3 85.3 371.7 128 355.5C170.7 339.3 213.3 310.7 256 289.2C298.7 267.7 341.3 253.3 384 262.3C426.7 271.3 469.3 303.7 512 307.2C554.7 310.7 597.3 285.3 640 285.3C682.7 285.3 725.3 310.7 768 301.7C810.7 292.7 853.3 249.3 896 234.8C938.7 220.3 981.3 234.7 1024 241.8C1066.7 249 1109.3 249 1152 256.3C1194.7 263.7 1237.3 278.3 1280 289.2C1322.7 300 1365.3 307 1408 314.2C1450.7 321.3 1493.3 328.7 1536 343.2C1578.7 357.7 1621.3 379.3 1664 363.2C1706.7 347 1749.3 293 1792 271.3C1834.7 249.7 1877.3 260.3 1898.7 265.7L1920 271L1920 0L1898.7 0C1877.3 0 1834.7 0 1792 0C1749.3 0 1706.7 0 1664 0C1621.3 0 1578.7 0 1536 0C1493.3 0 1450.7 0 1408 0C1365.3 0 1322.7 0 1280 0C1237.3 0 1194.7 0 1152 0C1109.3 0 1066.7 0 1024 0C981.3 0 938.7 0 896 0C853.3 0 810.7 0 768 0C725.3 0 682.7 0 640 0C597.3 0 554.7 0 512 0C469.3 0 426.7 0 384 0C341.3 0 298.7 0 256 0C213.3 0 170.7 0 128 0C85.3 0 42.7 0 21.3 0L0 0Z" fill="#0008ff"></path><path d="M0 433L21.3 434.8C42.7 436.7 85.3 440.3 128 431.3C170.7 422.3 213.3 400.7 256 375.5C298.7 350.3 341.3 321.7 384 330.7C426.7 339.7 469.3 386.3 512 389.8C554.7 393.3 597.3 353.7 640 351.8C682.7 350 725.3 386 768 377C810.7 368 853.3 314 896 294.2C938.7 274.3 981.3 288.7 1024 297.7C1066.7 306.7 1109.3 310.3 1152 323C1194.7 335.7 1237.3 357.3 1280 368.2C1322.7 379 1365.3 379 1408 388C1450.7 397 1493.3 415 1536 427.7C1578.7 440.3 1621.3 447.7 1664 429.7C1706.7 411.7 1749.3 368.3 1792 348.5C1834.7 328.7 1877.3 332.3 1898.7 334.2L1920 336L1920 269L1898.7 263.7C1877.3 258.3 1834.7 247.7 1792 269.3C1749.3 291 1706.7 345 1664 361.2C1621.3 377.3 1578.7 355.7 1536 341.2C1493.3 326.7 1450.7 319.3 1408 312.2C1365.3 305 1322.7 298 1280 287.2C1237.3 276.3 1194.7 261.7 1152 254.3C1109.3 247 1066.7 247 1024 239.8C981.3 232.7 938.7 218.3 896 232.8C853.3 247.3 810.7 290.7 768 299.7C725.3 308.7 682.7 283.3 640 283.3C597.3 283.3 554.7 308.7 512 305.2C469.3 301.7 426.7 269.3 384 260.3C341.3 251.3 298.7 265.7 256 287.2C213.3 308.7 170.7 337.3 128 353.5C85.3 369.7 42.7 373.3 21.3 375.2L0 377Z" fill="#2312d2"></path><path d="M0 519L21.3 520.8C42.7 522.7 85.3 526.3 128 519.2C170.7 512 213.3 494 256 467C298.7 440 341.3 404 384 418.5C426.7 433 469.3 498 512 508.8C554.7 519.7 597.3 476.3 640 465.5C682.7 454.7 725.3 476.3 768 467.3C810.7 458.3 853.3 418.7 896 404.2C938.7 389.7 981.3 400.3 1024 411.2C1066.7 422 1109.3 433 1152 440.3C1194.7 447.7 1237.3 451.3 1280 454.8C1322.7 458.3 1365.3 461.7 1408 477.8C1450.7 494 1493.3 523 1536 533.8C1578.7 544.7 1621.3 537.3 1664 517.5C1706.7 497.7 1749.3 465.3 1792 451C1834.7 436.7 1877.3 440.3 1898.7 442.2L1920 444L1920 334L1898.7 332.2C1877.3 330.3 1834.7 326.7 1792 346.5C1749.3 366.3 1706.7 409.7 1664 427.7C1621.3 445.7 1578.7 438.3 1536 425.7C1493.3 413 1450.7 395 1408 386C1365.3 377 1322.7 377 1280 366.2C1237.3 355.3 1194.7 333.7 1152 321C1109.3 308.3 1066.7 304.7 1024 295.7C981.3 286.7 938.7 272.3 896 292.2C853.3 312 810.7 366 768 375C725.3 384 682.7 348 640 349.8C597.3 351.7 554.7 391.3 512 387.8C469.3 384.3 426.7 337.7 384 328.7C341.3 319.7 298.7 348.3 256 373.5C213.3 398.7 170.7 420.3 128 429.3C85.3 438.3 42.7 434.7 21.3 432.8L0 431Z" fill="#2b16a6"></path><path d="M0 595L21.3 595C42.7 595 85.3 595 128 589.7C170.7 584.3 213.3 573.7 256 553.8C298.7 534 341.3 505 384 523C426.7 541 469.3 606 512 615C554.7 624 597.3 577 640 559C682.7 541 725.3 552 768 541.2C810.7 530.3 853.3 497.7 896 492.2C938.7 486.7 981.3 508.3 1024 522.8C1066.7 537.3 1109.3 544.7 1152 548.3C1194.7 552 1237.3 552 1280 552C1322.7 552 1365.3 552 1408 566.3C1450.7 580.7 1493.3 609.3 1536 618.3C1578.7 627.3 1621.3 616.7 1664 600.5C1706.7 584.3 1749.3 562.7 1792 553.7C1834.7 544.7 1877.3 548.3 1898.7 550.2L1920 552L1920 442L1898.7 440.2C1877.3 438.3 1834.7 434.7 1792 449C1749.3 463.3 1706.7 495.7 1664 515.5C1621.3 535.3 1578.7 542.7 1536 531.8C1493.3 521 1450.7 492 1408 475.8C1365.3 459.7 1322.7 456.3 1280 452.8C1237.3 449.3 1194.7 445.7 1152 438.3C1109.3 431 1066.7 420 1024 409.2C981.3 398.3 938.7 387.7 896 402.2C853.3 416.7 810.7 456.3 768 465.3C725.3 474.3 682.7 452.7 640 463.5C597.3 474.3 554.7 517.7 512 506.8C469.3 496 426.7 431 384 416.5C341.3 402 298.7 438 256 465C213.3 492 170.7 510 128 517.2C85.3 524.3 42.7 520.7 21.3 518.8L0 517Z" fill="#2b177d"></path><path d="M0 800L21.3 800C42.7 800 85.3 800 128 794.7C170.7 789.3 213.3 778.7 256 769.7C298.7 760.7 341.3 753.3 384 769.5C426.7 785.7 469.3 825.3 512 838C554.7 850.7 597.3 836.3 640 818.3C682.7 800.3 725.3 778.7 768 775C810.7 771.3 853.3 785.7 896 789.3C938.7 793 981.3 786 1024 780.7C1066.7 775.3 1109.3 771.7 1152 775.2C1194.7 778.7 1237.3 789.3 1280 789.3C1322.7 789.3 1365.3 778.7 1408 782.3C1450.7 786 1493.3 804 1536 814.8C1578.7 825.7 1621.3 829.3 1664 823.8C1706.7 818.3 1749.3 803.7 1792 801.8C1834.7 800 1877.3 811 1898.7 816.5L1920 822L1920 550L1898.7 548.2C1877.3 546.3 1834.7 542.7 1792 551.7C1749.3 560.7 1706.7 582.3 1664 598.5C1621.3 614.7 1578.7 625.3 1536 616.3C1493.3 607.3 1450.7 578.7 1408 564.3C1365.3 550 1322.7 550 1280 550C1237.3 550 1194.7 550 1152 546.3C1109.3 542.7 1066.7 535.3 1024 520.8C981.3 506.3 938.7 484.7 896 490.2C853.3 495.7 810.7 528.3 768 539.2C725.3 550 682.7 539 640 557C597.3 575 554.7 622 512 613C469.3 604 426.7 539 384 521C341.3 503 298.7 532 256 551.8C213.3 571.7 170.7 582.3 128 587.7C85.3 593 42.7 593 21.3 593L0 593Z" fill="#261656"></path><path d="M0 951L21.3 952.8C42.7 954.7 85.3 958.3 128 960.2C170.7 962 213.3 962 256 954.8C298.7 947.7 341.3 933.3 384 935.2C426.7 937 469.3 955 512 967.7C554.7 980.3 597.3 987.7 640 985.8C682.7 984 725.3 973 768 964C810.7 955 853.3 948 896 949.8C938.7 951.7 981.3 962.3 1024 964C1066.7 965.7 1109.3 958.3 1152 949.3C1194.7 940.3 1237.3 929.7 1280 929.7C1322.7 929.7 1365.3 940.3 1408 942.2C1450.7 944 1493.3 937 1536 942.5C1578.7 948 1621.3 966 1664 969.5C1706.7 973 1749.3 962 1792 954.8C1834.7 947.7 1877.3 944.3 1898.7 942.7L1920 941L1920 820L1898.7 814.5C1877.3 809 1834.7 798 1792 799.8C1749.3 801.7 1706.7 816.3 1664 821.8C1621.3 827.3 1578.7 823.7 1536 812.8C1493.3 802 1450.7 784 1408 780.3C1365.3 776.7 1322.7 787.3 1280 787.3C1237.3 787.3 1194.7 776.7 1152 773.2C1109.3 769.7 1066.7 773.3 1024 778.7C981.3 784 938.7 791 896 787.3C853.3 783.7 810.7 769.3 768 773C725.3 776.7 682.7 798.3 640 816.3C597.3 834.3 554.7 848.7 512 836C469.3 823.3 426.7 783.7 384 767.5C341.3 751.3 298.7 758.7 256 767.7C213.3 776.7 170.7 787.3 128 792.7C85.3 798 42.7 798 21.3 798L0 798Z" fill="#1d1431"></path><path d="M0 1081L21.3 1081C42.7 1081 85.3 1081 128 1081C170.7 1081 213.3 1081 256 1081C298.7 1081 341.3 1081 384 1081C426.7 1081 469.3 1081 512 1081C554.7 1081 597.3 1081 640 1081C682.7 1081 725.3 1081 768 1081C810.7 1081 853.3 1081 896 1081C938.7 1081 981.3 1081 1024 1081C1066.7 1081 1109.3 1081 1152 1081C1194.7 1081 1237.3 1081 1280 1081C1322.7 1081 1365.3 1081 1408 1081C1450.7 1081 1493.3 1081 1536 1081C1578.7 1081 1621.3 1081 1664 1081C1706.7 1081 1749.3 1081 1792 1081C1834.7 1081 1877.3 1081 1898.7 1081L1920 1081L1920 939L1898.7 940.7C1877.3 942.3 1834.7 945.7 1792 952.8C1749.3 960 1706.7 971 1664 967.5C1621.3 964 1578.7 946 1536 940.5C1493.3 935 1450.7 942 1408 940.2C1365.3 938.3 1322.7 927.7 1280 927.7C1237.3 927.7 1194.7 938.3 1152 947.3C1109.3 956.3 1066.7 963.7 1024 962C981.3 960.3 938.7 949.7 896 947.8C853.3 946 810.7 953 768 962C725.3 971 682.7 982 640 983.8C597.3 985.7 554.7 978.3 512 965.7C469.3 953 426.7 935 384 933.2C341.3 931.3 298.7 945.7 256 952.8C213.3 960 170.7 960 128 958.2C85.3 956.3 42.7 952.7 21.3 950.8L0 949Z" fill="#0e0e0e"></path></svg>